<svg xmlns="http://www.w3.org/2000/svg" viewBox="0 0 200 200">
  <defs>
    <radialGradient id="ball" cx="0.36" cy="0.3" r="0.95">
      <stop offset="0" stop-color="#FFFFFF"/>
      <stop offset="0.6" stop-color="#F8F0DC"/>
      <stop offset="1" stop-color="#E7D6B2"/>
    </radialGradient>
    <radialGradient id="slice" cx="0.42" cy="0.38" r="0.9">
      <stop offset="0" stop-color="#FFFEF9"/>
      <stop offset="1" stop-color="#F3E8CE"/>
    </radialGradient>
  </defs>
  <ellipse cx="100" cy="178" rx="76" ry="8" fill="#000" opacity="0.07"/>

  <!-- smooth ball with a soft folded pinch at the top -->
  <circle cx="76" cy="100" r="62" fill="url(#ball)"/>
  <path d="M56 56 C64 47 78 42 92 45" fill="none" stroke="#E3D2AC" stroke-width="3" stroke-linecap="round" opacity="0.55"/>
  <path d="M64 64 C70 57 80 53 90 54" fill="none" stroke="#E3D2AC" stroke-width="2.2" stroke-linecap="round" opacity="0.4"/>
  <!-- sheen -->
  <ellipse cx="53" cy="80" rx="19" ry="13" fill="#FFFFFF" opacity="0.75" transform="rotate(-22 53 80)"/>
  <circle cx="96" cy="126" r="2.4" fill="#E7D6B2"/>
  <circle cx="60" cy="140" r="2" fill="#E7D6B2"/>

  <!-- two cut slices leaning in front: visible edge + creamy face -->
  <g>
    <ellipse cx="146" cy="122" rx="37" ry="35" fill="#DCC79C"/>
    <circle cx="142" cy="116" r="35" fill="url(#slice)" stroke="#E8D8B4" stroke-width="2"/>
    <circle cx="142" cy="116" r="27" fill="none" stroke="#EFE3C8" stroke-width="3" opacity="0.9"/>
    <circle cx="134" cy="104" r="2.4" fill="#E4D3AE"/>
    <circle cx="152" cy="118" r="2" fill="#E4D3AE"/>
    <circle cx="136" cy="128" r="1.8" fill="#E4D3AE"/>
    <ellipse cx="132" cy="102" rx="9" ry="6" fill="#FFFFFF" opacity="0.7" transform="rotate(-18 132 102)"/>
  </g>
  <g>
    <ellipse cx="172" cy="154" rx="27" ry="25" fill="#DCC79C"/>
    <circle cx="169" cy="149" r="25" fill="url(#slice)" stroke="#E8D8B4" stroke-width="2"/>
    <circle cx="169" cy="149" r="18.5" fill="none" stroke="#EFE3C8" stroke-width="2.5" opacity="0.9"/>
    <circle cx="163" cy="142" r="1.8" fill="#E4D3AE"/>
    <circle cx="175" cy="154" r="1.6" fill="#E4D3AE"/>
  </g>
</svg>
