<svg xmlns="http://www.w3.org/2000/svg" viewBox="0 0 200 200">
  <defs>
    <linearGradient id="oil" x1="0" y1="0" x2="0" y2="1">
      <stop offset="0" stop-color="#F2D24B"/>
      <stop offset="1" stop-color="#D9A916"/>
    </linearGradient>
    <linearGradient id="glass" x1="0" y1="0" x2="1" y2="0">
      <stop offset="0" stop-color="#FBF7EC"/>
      <stop offset="1" stop-color="#EDE4CF"/>
    </linearGradient>
  </defs>
  <ellipse cx="102" cy="182" rx="52" ry="8" fill="#000" opacity="0.08"/>
  <!-- handle -->
  <path d="M128 62 C154 64 160 96 138 104 L132 94 C146 90 142 72 126 72 Z" fill="url(#glass)" stroke="#DDD1B6" stroke-width="2"/>
  <!-- bottle body -->
  <path d="M88 42 L88 74 C66 88 54 106 54 130 C54 162 74 180 102 180 C130 180 150 162 150 130 C150 106 138 88 116 74 L116 42 Z" fill="url(#glass)" stroke="#DDD1B6" stroke-width="2.5"/>
  <!-- oil fill -->
  <path d="M96 84 C72 96 62 112 62 132 C62 158 78 172 102 172 C126 172 142 158 142 132 C142 112 132 96 108 84 Z" fill="url(#oil)"/>
  <ellipse cx="102" cy="94" rx="30" ry="9" fill="#F7E27E"/>
  <ellipse cx="116" cy="158" rx="14" ry="7" fill="#F7E27E" opacity="0.55"/>
  <path d="M78 104 C70 114 66 126 67 138" fill="none" stroke="#FBF0B4" stroke-width="6" stroke-linecap="round" opacity="0.7"/>
  <!-- neck rim -->
  <path d="M84 42 C84 36 88 32 94 32 L110 32 C116 32 120 36 120 42 C120 47 116 50 110 50 L94 50 C88 50 84 47 84 42Z" fill="url(#glass)" stroke="#DDD1B6" stroke-width="2.5"/>
  <!-- cork -->
  <path d="M90 34 L92 12 C92 8 96 6 102 6 C108 6 112 8 112 12 L114 34 Z" fill="#D8A968"/>
  <path d="M92 12 C92 8 96 6 102 6 C108 6 112 8 112 12 C112 15 108 17 102 17 C96 17 92 15 92 12Z" fill="#C4924F"/>
  <circle cx="98" cy="24" r="1.6" fill="#B98844" opacity="0.8"/>
  <circle cx="106" cy="20" r="1.3" fill="#B98844" opacity="0.8"/>
  <circle cx="103" cy="28" r="1.2" fill="#B98844" opacity="0.8"/>
  <!-- glass shine -->
  <path d="M76 96 C68 108 64 122 65 136" fill="none" stroke="#fff" stroke-width="4" stroke-linecap="round" opacity="0.55"/>
  <!-- olives -->
  <g>
    <path d="M46 140 C34 128 20 124 8 128 C20 132 30 140 36 150 Z" fill="#7FA845"/>
    <path d="M44 142 C40 130 30 120 18 116 C24 128 28 138 30 148 Z" fill="#6E9739"/>
    <ellipse cx="38" cy="158" rx="15" ry="12" fill="#A6B94C"/>
    <ellipse cx="34" cy="154" rx="5" ry="3.5" fill="#C6D470" opacity="0.9"/>
    <ellipse cx="58" cy="166" rx="14" ry="11" fill="#96AC3F"/>
    <ellipse cx="54" cy="162" rx="4.5" ry="3" fill="#C6D470" opacity="0.9"/>
  </g>
</svg>
