<svg xmlns="http://www.w3.org/2000/svg" viewBox="0 0 200 200">
  <defs>
    <radialGradient id="body" cx="0.38" cy="0.32" r="0.85">
      <stop offset="0" stop-color="#F4726B"/>
      <stop offset="0.55" stop-color="#E63946"/>
      <stop offset="1" stop-color="#C22733"/>
    </radialGradient>
    <linearGradient id="leaf" x1="0" y1="0" x2="0" y2="1">
      <stop offset="0" stop-color="#8BC34A"/>
      <stop offset="1" stop-color="#5D9C34"/>
    </linearGradient>
  </defs>
  <ellipse cx="100" cy="178" rx="58" ry="9" fill="#000" opacity="0.08"/>
  <ellipse cx="100" cy="112" rx="72" ry="64" fill="url(#body)"/>
  <path d="M46 84 Q100 62 154 84 Q140 70 118 64 Q100 60 82 64 Q60 70 46 84Z" fill="#C22733" opacity="0.35"/>
  <ellipse cx="72" cy="88" rx="16" ry="11" fill="#fff" opacity="0.55" transform="rotate(-18 72 88)"/>
  <ellipse cx="90" cy="104" rx="6" ry="4.5" fill="#fff" opacity="0.4"/>
  <g>
    <path d="M100 54 C97 40 102 32 112 27 C107 36 108 44 106 52 Z" fill="#6FA83C"/>
    <path d="M100 56 C88 48 72 46 58 52 C72 54 82 60 88 66 Z" fill="url(#leaf)"/>
    <path d="M100 56 C112 48 128 46 142 52 C128 54 118 60 112 66 Z" fill="url(#leaf)"/>
    <path d="M98 58 C86 56 74 62 66 72 C78 68 88 68 96 70 Z" fill="#6FA83C"/>
    <path d="M102 58 C114 56 126 62 134 72 C122 68 112 68 104 70 Z" fill="#6FA83C"/>
    <path d="M100 58 C96 66 96 74 100 82 C104 74 104 66 100 58 Z" fill="url(#leaf)"/>
    <rect x="96" y="38" width="9" height="20" rx="4.5" fill="#7CB84A" transform="rotate(8 100 48)"/>
  </g>
</svg>
